<svg xmlns="http://www.w3.org/2000/svg" xmlns:xlink="http://www.w3.org/1999/xlink" width="500" zoomAndPan="magnify" viewBox="0 0 375 374.999991" height="500" preserveAspectRatio="xMidYMid meet" version="1.2"><g id="9e177cb5e4"><path style=" stroke:none;fill-rule:nonzero;fill:#ffa726;fill-opacity:1;" d="M 170.238281 20.261719 C 75.21875 24.050781 0.0585938 102.289062 0 197.464844 C 0 257.523438 30.410156 313.535156 80.699219 346.25 L 111.054688 294.53125 C 78.996094 272.617188 59.882812 236.304688 59.882812 197.464844 C 59.882812 135.320312 108.28125 83.921875 170.238281 80.191406 Z M 170.238281 20.261719 "/><path style=" stroke:none;fill-rule:nonzero;fill:#8bc34a;fill-opacity:1;" d="M 186.332031 0 L 186.332031 66.664062 C 256.152344 69.632812 311.347656 127.15625 311.40625 197.160156 C 311.347656 216.375 307.085938 235.34375 298.875 252.703125 L 358.019531 283.472656 C 371.109375 256.597656 377.957031 227.058594 378.023438 197.160156 C 377.898438 90.390625 292.953125 3.027344 186.332031 0 Z M 186.332031 0 "/><path style=" stroke:none;fill-rule:nonzero;fill:#2196f3;fill-opacity:1;" d="M 277.828125 258.089844 C 256.558594 293.394531 218.453125 314.992188 177.304688 315.050781 C 157.808594 315.050781 138.566406 310.125 121.398438 300.839844 L 91.175781 352.375 C 117.484375 367.085938 147.140625 374.855469 177.304688 374.980469 C 240.78125 374.855469 299.410156 340.816406 330.957031 285.683594 Z M 277.828125 258.089844 "/><path style=" stroke:none;fill-rule:nonzero;fill:#009688;fill-opacity:1;" d="M 173.527344 116.757812 C 170.75 116.757812 169.554688 118.019531 169.554688 120.421875 L 169.554688 133.617188 C 162.230469 134.9375 157.308594 137.28125 151.320312 142.773438 C 142.929688 151.492188 141.855469 160.074219 141.855469 169.175781 C 141.855469 177.128906 144.566406 184.328125 150.125 190.136719 C 155.300781 195.566406 162.996094 199.921875 172.773438 203.65625 C 172.832031 203.65625 172.832031 203.65625 172.832031 203.65625 C 177.753906 205.300781 182.355469 207.25 186.652344 209.777344 C 187.976562 210.53125 188.992188 211.550781 189.804688 212.558594 C 192.710938 217.546875 193.339844 224.429688 189.746094 229.289062 C 188.992188 230.242188 188.042969 230.9375 186.839844 231.503906 C 182.796875 233.148438 178.382812 233.023438 173.585938 232.769531 C 170.367188 232.453125 167.273438 232.011719 164.25 231.191406 C 160.148438 229.984375 156.488281 228.476562 153.265625 226.519531 C 147.71875 223.167969 145.566406 224.746094 145.191406 229.671875 L 143.742188 248.804688 C 143.558594 250.695312 144.878906 252.46875 146.835938 253.164062 C 151.691406 254.867188 156.613281 256.191406 161.605469 257.082031 C 164.257812 257.523438 166.910156 257.835938 169.554688 258.03125 L 169.554688 270.03125 C 169.554688 272.429688 171.128906 274.007812 173.839844 274.007812 L 188.355469 274.007812 C 191.136719 274.007812 192.515625 272.8125 192.515625 270.34375 L 192.515625 256.582031 C 199.835938 254.808594 206.148438 251.59375 210.9375 246.726562 C 217.4375 240.28125 220.65625 228.789062 220.65625 219.503906 C 220.65625 210.472656 218.074219 202.644531 212.707031 196.515625 C 207.660156 190.636719 199.710938 185.835938 189.238281 181.675781 C 184.1875 179.585938 179.898438 178.390625 175.359375 175.679688 C 173.839844 174.730469 172.707031 173.789062 172.078125 173.09375 C 170.882812 171.574219 170.25 169.742188 170.25 167.027344 C 170.25 164 171.324219 161.789062 173.339844 160.144531 C 178.765625 155.910156 188.296875 157.175781 195.109375 159.132812 C 198.457031 160.082031 201.988281 161.277344 205.199219 163.363281 C 209.8125 166.332031 212.707031 164.441406 213.023438 160.082031 L 214.539062 141.707031 C 214.726562 139.816406 213.402344 138.109375 211.445312 137.347656 C 207.089844 135.769531 202.734375 134.507812 198.386719 133.683594 C 196.429688 133.300781 194.472656 133.054688 192.515625 132.800781 L 192.515625 120.488281 C 192.515625 118.089844 191.195312 116.765625 188.472656 116.765625 L 173.527344 116.765625 Z M 173.527344 116.757812 "/></g></svg>